<svg xmlns="http://www.w3.org/2000/svg" viewBox="405.18 361.65 151.27 95.86"><path fill="#FFB900" d="M476.698 454.422c24.409 0 44.195-20.084 44.195-44.861 0-24.775-19.786-44.862-44.195-44.862-24.403 0-44.19 20.087-44.19 44.862s19.787 44.861 44.19 44.861"/><path fill="#562385" d="M496.844 414.15c-4.128 5.008-6.47 6.723-10.662 6.723-1.428 0-2.171-.321-1.77-1.013l4.973-10.001h1.896c2.118 0 1.825 1.784 1.249 4.2-.101.337.154.356.405.063l4.729-8.31c.23-.523-.367-.625-.658-.23-2.368 3.215-4.861 2.976-5.911 2.976h-.858l5.314-10.137h2.14c2.696.167 3.953 2.457 3.173 7.978h1.122l3.904-7.697c.316-.65-.35-1.246-1.085-1.246l-26.504.007c-1.535 0-1.605 1.18-.131 1.18 1.191 0 1.129 1.708.057 2.536l-11.25 8.934 2.273 10.548c.165.795.678 1.175 1.557 1.175h21.915c.904 0 1.277-.368 1.569-.744l3.967-6.854c.55-.986-.724-.923-1.414-.088m-15.267-4.816-1.93-.01a.24.24 0 0 0-.243.241c0 .134.11.243.244.243l1.956-.018c.662 0 1.269.084 1.1.378l-5.068 9.678c-.629 1.153-1.961.858-2.172-.064l-2.51-12.969 8.826-6.844c.875-.752 2.563-1.98 3.425-1.967l1.923-.011c1.17-.007 1.589.54 1.31 1.25l-.34.654c-.22.367-.91.411-1.5.411l-1.11.006a.244.244 0 0 0-.246.246c0 .137.11.244.246.244h1.095c.474 0 1.067.012.849.367l-4.094 7.805c-.19.305-1.04.36-1.76.36"/><path fill="#562385" d="M463.384 420.657a1.2 1.2 0 0 1-1.11-.82c-.188-.564-.17-1.564.056-2.008l10.226-18.132c.166-.335.58-1.034 1.088-1.034.904.002 1.293-1.187-.237-1.187h-8.19c-1.53 0-1.545 1.165-.079 1.165.598 0 .837.587.666.945l-2.26 4.1c-.284.45-.91.485-1.57.485l-1.951-.007a.247.247 0 0 0 0 .494h1.934c.523 0 .94.158.638.765l-7.548 13.75c-.543.756-1.626.925-1.564-.524l2.684-20.137c.106-.629-.06-1.055-.732-1.055l-4.046.007c-.485 0-.783.235-1.015.549l-1.446 1.818c-.19.188-.596.187-1.046.187l-3.4-.005a.244.244 0 0 0-.244.244c0 .137.11.247.244.247h2.775c.492 0 1.067.114.858.346l-3.892 4.898c-.118.134-.494.17-.727.17h-1.1a.245.245 0 0 0-.246.243c0 .134.109.244.246.244l.918.004c.285 0 .286.139.173.267l-3.662 4.6c-.188.176-.553.213-.909.213l-3.232-.004a.244.244 0 0 0-.242.246c0 .134.11.244.242.244h2.773c.422 0 .746.075.524.36l-5.202 6.524c-.977 1.245-5.686 1.88-6.603 1.88l17.593-32.918c.167-.378.822-.955 1.495-.955H450c1.763 0 1.712-1.173.181-1.173h-18.78c-1.53 0-1.591 1.173.169 1.173h3.478c.987 0 1.304.596 1.052 1.084l-.5.906c-.163.293-.398.411-1.351.411l-6.146-.003a.244.244 0 0 0 0 .488l6.13.002c.332 0 .83.087.518.685l-.863 1.595c-.145.242-.52.358-.954.358l-2.784-.006a.245.245 0 1 0 0 .49l2.771.005c.396 0 .408.258.178.625l-1.98 3.68c-.169.313-.49.355-1.118.355l-1.11-.006a.245.245 0 1 0 0 .49l1.095.002c.416 0 .526.233.34.631l-1.625 3.021c-.243.429-.587.6-1.668.6l-6.144-.006a.246.246 0 1 0 0 .492l6.127.001c.693.011.949.314.678.81l-3.174 5.96c-.188.265-.705.305-1.587.305l-6.145-.008a.246.246 0 0 0-.244.249c0 .134.108.241.244.241l6.13.002c.733 0 1.181.032.958.418l-1.825 3.438c-.337.524-1.279.524-1.646.524l-1.95-.005a.244.244 0 0 0-.243.246c0 .135.11.244.244.244l1.932.001c.684 0 1.044.119.865.485l-2.442 4.589c-.22.409-1.174.429-1.91.429l-9.499-.009a.25.25 0 0 0-.245.248c0 .132.113.244.245.244l9.486.002c.63 0 1.423.077 1.127.58l-1.554 2.93c-.147.242-.679.262-1.446.262l-1.947-.003a.244.244 0 1 0 0 .488h1.934c.47 0 1.046.053.844.412l-.974 1.87c-.314.466-.628.88-1.381.88h-4.767c-1.763 0-1.701 1.173-.171 1.173l27.992.017c.818 0 .844-.11 1.23-.714l4.152-7.238 21.217.002c1.532.004 1.138-1.151.24-1.18m-16.643-2.157c-.208 1.194-1.41 1.984-2.92 2.385l-1.558.387 1.28-2.305c.337-.628-.402-.997-1.207-.064-5.417 6.312-7.147 9.332-15.502 9.355l-2.246.004c-.68 0-1.425-.265-.964-.914l2.956-5.508 11.228.002c1.533 0 1.14-1.156.24-1.185-.595-.02-1.245-.36-1.704-1.087-.13-.2-.409-1 .028-1.617l4.3-5.715h7.149zm1.617-7.225h-6.972l8.82-11.635zm106.106 3.598c-.115-.575-.322-.225-.702.498-.115.22-.483.225-.85.225l-1.12.005a.247.247 0 0 0-.248.248c0 .132.11.24.248.24h1.104c.416 0 .426.28.228.702-.772 1.644-1.567 2.746-2.625 4.068-.165.207-.59.388-.925.388l-1.13.007a.244.244 0 0 0-.242.246c0 .134.108.244.243.244h1.104c.556 0-.008.34-.102.466-1.957 2.612-3.306 3.778-4.743 4.948-.169.135-.98.086-1.549.083l-1.112.003a.25.25 0 0 0-.243.25c0 .134.11.246.243.246h1.099c.837 0 .206.48.083.584-3.053 2.542-7.595 3.36-9.674 3.1-6.747-.846-8.14-5.968-8.639-8.015-.1-.428-.426-1.307-.533-1.848-.208-1.07 2.836-1.374 3.676-.811 1.273.852 4.248 1.728 6.588 1.735 2.164.008 6.593-1.564 7.874-5.28 1.312-3.803-1.98-8.024-3.442-9.479-1.856-1.86-3.614-4.817-2.871-6.988.557-1.639 1.489-2.38 3.487-2.38 2.582 0 4.457 1.66 4.457 4.014 0 .213-.126.46-.296.46l-.912.004a.246.246 0 1 0 0 .493l.855-.001c.243 0 .394.182.33.478-.165.787-.22 1.341-.392 2.131-.103.458.57.775.803.441l4.058-7.244c.294-.547-.36-.693-.84-.523-1.112.382-2.919.652-3.557.19-1.52-1.089-2.904-1.786-5.017-1.786-3.61 0-6.135.886-7.756 3.855-.125.233-.48.23-.782.23h-.694a.24.24 0 0 0-.243.243c0 .135.109.244.243.244l.59-.006c.252 0 .42.072.295.366q-.165.4-.306.838c-.409 1.286-.276 3.09.368 4.695.041.108-.097.158-.346.158h-1.102a.246.246 0 1 0 0 .491h1.102c.5.003.62.055.826.346.572.801 1.153 1.396 1.887 2.329.232.291-.754.373-1.278.37l-4.372-.002a.243.243 0 0 0-.243.246c0 .135.104.246.243.246l4.428-.006c.71 0 1.931-.01 2.068.146 1.068 1.237 2.364 3.14 2.586 4.742.062.463-.11.657-.68.657h-.594a.24.24 0 0 0-.244.244c0 .136.109.244.244.244h.524c.452 0 .697.075.591.413-.574 1.833-1.434 3.16-4.938 3.141-3.673-.02-4.42-3.622-3.345-7.379.21-.745-.01-1.07-.347-.479l-2.557 4.016c-.062.095-.308.325-.699.325l-.36-.003c-.139 0-.244.112-.244.247s.11.243.244.243c.323 0 .45.174.323.354l-.933 1.46c-1.55-3.534-4.138-7.886-5.518-9.47l.025-.076c3.409-.208 8.431-3.399 9.257-6.252 1.428-4.95-3.38-6.778-6.001-6.778l-11.516.002c-1.53 0-1.644 1.161-.175 1.161.795 0 1.487.694 1.138 1.397l-2.55 4.597c-.211.376-1.004.353-2.032.353h-1.118a.246.246 0 0 0 0 .493h1.1c.734 0 1.543.043 1.268.57l-3.015 5.443c-.144.254-.536.275-1.561.275l-1.112.002a.25.25 0 0 0-.248.25c0 .13.11.245.248.245h1.084c.811 0 1.113.106.88.525l-4.029 7.286c-.48.522-1.053.622-2.037.622-1.468 0-1.454 1.163.078 1.163h9.863c1.532 0 1.143-1.184.237-1.184-.529 0-1.092-.976-.736-1.56l5.034-9.538h.512c2.239 0 2.781 3.674 3.2 7.684.032.29-.515.301-1.632.301l-2.797.01a.244.244 0 0 0-.246.244c0 .133.11.245.246.245h2.766c.738 0 1.764.008 1.79.241.193 1.761.337 3.31.677 4.722.104.44-.68.371-1.52.371l-3.566.004a.245.245 0 1 0 0 .492l3.562.003c1.119 0 1.698 0 1.761.228 1.533 5.628 8.113 10.057 14.508 9.813 5.491-.208 10.13-3.196 12.5-5.098 3.162-2.535 7.798-7.842 9.689-11.7.341-.706.9-1.613.771-2.242m-36.9-7.49c-.77.63-1.982 1.359-2.217 1.127-.327-.324-1.347-1.028-1.894-1.28l4.572-8.355c.189-.294.405-.453.91-.453 1.777 0 2.36 1.928 1.524 4.332-.587 1.683-1.536 3.509-2.896 4.63"/><path fill="#562385" d="M462.023 390.032c-.928 1.196-2.154 1.502-3.53 1.502h-.387l2.426-4.803a.77.77 0 0 1 .69-.395c.302 0 .264-.606-.132-.606h-3.826c-.325 0-.44.606-.136.606.326 0 .385.361.23.667l-2.173 4.282c-.148.23-.389.291-.653.363-.324.082-.545.66-.18.66h6.106c.472 0 .582-.174.707-.343l1.23-1.902c.175-.228-.195-.26-.372-.03m18.392-4.133c-.187.104-.624.156-.814-.004-.487-.404-1.444-.715-1.946-.715-1.438 0-2.48.284-3.107 1.642-.533 1.16.013 2.13 1.282 2.715.55.255 1.279.589 1 1.247-.204.487-.767.536-1.275.534-.682-.009-1.708-.52-1.865-1.483-.054-.314-.42-.24-.525-.073l-.87 1.732c-.135.23.225.484.366.334.292-.313.93-.391 1.244-.18.435.289 1.55.795 2.21.788 1.46-.011 2.423-.384 3.223-1.638.729-1.141.28-2.272-1.052-2.902-.703-.328-1.305-.915-.992-1.561.208-.42.831-.33 1.142-.277.596.102 1.358.662 1.445 1.154.039.209.304.251.424.064l.457-1.07c.105-.206-.232-.368-.347-.307m42.365 1.721.533-.978c.233-.431-.146-.921-.756-.921h-7.129c-.513 0-.366.534-.156.534.459 0 .594.56.315 1.033l-2.142 3.941c-.32.38-.523.542-.983.542-.367 0-.498.536.016.536h7.225c.293 0 .425-.104.528-.252l.983-1.304c.238-.313-.278-.313-.436-.157-1.245 1.246-2.58 1.214-3.55 1.214h-.84l.986-2.211h.214c.632 0 1.364-.008 1.56.476.051.115.361.208.489 0l.843-1.689c.136-.25-.242-.293-.348-.113-.33.594-1.797.435-2.178.435h-.214l1.234-2.43h1.372c.853 0 1.586.602 1.83 1.26.058.157.514.284.604.084m-18.24-1.899h-2.536c-.514 0-.362.534-.154.534.544 0 1.036.637.74 1.226l-1.053 1.923-2.316-3.393c-.155-.207-.518-.31-.833-.31h-2.496c-.513 0-.394.534-.186.534.53 0 .394.397.262.68l-1.99 3.828c-.127.307-.666.35-.837-.04l-1.536-5.016c-.064-.198-.966-.187-1.195 0l-3.857 3.182h-2.002c-.394 0-.552.166-.552.376s.15.403.567.403l1.045-.003-1.045.863c-.578.429-1.171 1.027-1.571 1.027h-.239c-.38 0-.594.061-.594.365s.162.408.519.408h3.11c.59 0 .473-.765.18-.765-.324 0-.857-.41-.36-.986l.95-.908h1.871c1.11 0 1.888 1.286 1.225 1.687l-.511.282c-.242.126-.347.69 0 .69h6.079c.454 0 .36-.594.15-.594-.62 0-.327-.897-.206-1.136l1.596-3.027 2.245 4.35c.145.273.28.408.541.408h.86c.271 0 .366-.158.488-.367l2.554-4.617c.414-.826.729-1.062 1.248-1.062.21-.002.356-.542-.16-.542m-17.007 3.147 2.377-1.94.012 1.94zm-19.012-3.435c-2.14 0-4.34 1.053-4.783 3.297-.382 1.953.97 3.978 3.36 3.978 2.271 0 4.37-1.488 4.792-3.642.422-2.165-1.19-3.633-3.37-3.633m.608 4.114c-.68 1.35-1.814 2.158-2.54 1.794-.72-.364-.755-1.754-.076-3.107.675-1.352 1.81-2.157 2.535-1.794.722.364.756 1.754.081 3.107m42.641-.841h-2.745c-.513 0-.363.537-.156.537.218 0 .42.115.42.462 0 1.11-.469 1.536-1.427 1.536-1.044 0-1.423-1.269-.717-2.825.45-.995 1.64-1.925 3.049-1.925.868 0 1.596.187 1.703.998.027.2.33.2.429.011l.655-1.169c.074-.124-.041-.273-.24-.286-.167-.01-.544.206-.789.024-.552-.409-1.747-.807-2.65-.807-1.478 0-3.539.334-4.929 2.75-1.256 2.185.576 4.494 2.276 4.496.943.003 2.04-.696 2.666-.962l.703.479c.101.123.323.28.531.28h.261c.244 0 .339-.328.433-.537l1.076-2.611c.139-.261.06-.45-.549-.45m37.64-2.808c-.183.104-.622.156-.81-.004-.487-.404-1.445-.715-1.946-.715-1.438 0-2.483.284-3.107 1.642-.537 1.16.012 2.13 1.282 2.715.553.255 1.282.589 1.002 1.247-.206.487-.773.536-1.28.534-.678-.009-1.705-.52-1.865-1.483-.05-.314-.416-.24-.52-.073l-.871 1.732c-.137.23.222.484.365.334.295-.313.932-.391 1.248-.18.432.289 1.541.795 2.21.788 1.454-.011 2.42-.384 3.215-1.638.733-1.141.283-2.272-1.047-2.902-.706-.328-1.307-.915-.992-1.561.202-.42.834-.33 1.145-.277.59.102 1.356.662 1.442 1.154.037.209.303.251.42.064l.46-1.07c.1-.206-.234-.368-.35-.307m-19.105 4.132c-.922 1.196-2.152 1.502-3.532 1.502h-.386l2.43-4.803a.77.77 0 0 1 .687-.395c.303 0 .266-.606-.133-.606h-3.825c-.325 0-.44.606-.136.606.328 0 .387.361.229.667l-2.172 4.282c-.149.23-.385.291-.654.363-.322.082-.543.66-.176.66h6.105c.471 0 .585-.174.709-.343l1.225-1.902c.18-.228-.193-.26-.371-.03m9.209-3.757c.85 0 1.589.602 1.829 1.26.054.158.51.285.607.085l.531-.978c.229-.431-.15-.921-.76-.921h-7.127c-.515 0-.365.534-.155.534.46 0 .598.56.318 1.033l-2.142 3.941c-.32.38-.528.542-.984.542-.367 0-.499.536.018.536h7.222c.293 0 .425-.104.528-.252l.982-1.304c.24-.313-.279-.313-.436-.157-1.246 1.246-2.583 1.214-3.55 1.214h-.842l.99-2.211h.21c.634 0 1.367-.008 1.559.476.052.115.364.208.492 0l.842-1.689c.138-.25-.243-.293-.345-.113-.336.594-1.797.435-2.184.435h-.208l1.234-2.43z"/><path fill="#562385" d="M496.844 414.15c-4.128 5.008-6.47 6.723-10.662 6.723-1.428 0-2.171-.321-1.77-1.013l4.973-10.001h1.896c2.118 0 1.825 1.784 1.249 4.2-.101.337.154.356.405.063l4.729-8.31c.23-.523-.367-.625-.658-.23-2.368 3.215-4.861 2.976-5.911 2.976h-.858l5.314-10.137h2.14c2.696.167 3.953 2.457 3.173 7.978h1.122l3.904-7.697c.316-.65-.35-1.246-1.085-1.246l-26.504.007c-1.535 0-1.605 1.18-.131 1.18 1.191 0 1.129 1.708.057 2.536l-11.25 8.934 2.273 10.548c.165.795.678 1.175 1.557 1.175h21.915c.904 0 1.277-.368 1.569-.744l3.967-6.854c.55-.986-.724-.923-1.414-.088m-15.267-4.816-1.93-.01a.24.24 0 0 0-.243.241c0 .134.11.243.244.243l1.956-.018c.662 0 1.269.084 1.1.378l-5.068 9.678c-.629 1.153-1.961.858-2.172-.064l-2.51-12.969 8.826-6.844c.875-.752 2.563-1.98 3.425-1.967l1.923-.011c1.17-.007 1.589.54 1.31 1.25l-.34.654c-.22.367-.91.411-1.5.411l-1.11.006a.244.244 0 0 0-.246.246c0 .137.11.244.246.244h1.095c.474 0 1.067.012.849.367l-4.094 7.805c-.19.305-1.04.36-1.76.36" class="cls-53"/><path fill="#562385" d="M463.384 420.657a1.2 1.2 0 0 1-1.11-.82c-.188-.564-.17-1.564.056-2.008l10.226-18.132c.166-.335.58-1.034 1.088-1.034.904.002 1.293-1.187-.237-1.187h-8.19c-1.53 0-1.545 1.165-.079 1.165.598 0 .837.587.666.945l-2.26 4.1c-.284.45-.91.485-1.57.485l-1.951-.007a.247.247 0 0 0 0 .494h1.934c.523 0 .94.158.638.765l-7.548 13.75c-.543.756-1.626.925-1.564-.524l2.684-20.137c.106-.629-.06-1.055-.732-1.055l-4.046.007c-.485 0-.783.235-1.015.549l-1.446 1.818c-.19.188-.596.187-1.046.187l-3.4-.005a.244.244 0 0 0-.244.244c0 .137.11.247.244.247h2.775c.492 0 1.067.114.858.346l-3.892 4.898c-.118.134-.494.17-.727.17h-1.1a.245.245 0 0 0-.246.243c0 .134.109.244.246.244l.918.004c.285 0 .286.139.173.267l-3.662 4.6c-.188.176-.553.213-.909.213l-3.232-.004a.244.244 0 0 0-.242.246c0 .134.11.244.242.244h2.773c.422 0 .746.075.524.36l-5.202 6.524c-.977 1.245-5.686 1.88-6.603 1.88l17.593-32.918c.167-.378.822-.955 1.495-.955H450c1.763 0 1.712-1.173.181-1.173h-18.78c-1.53 0-1.591 1.173.169 1.173h3.478c.987 0 1.304.596 1.052 1.084l-.5.906c-.163.293-.398.411-1.351.411l-6.146-.003a.244.244 0 0 0 0 .488l6.13.002c.332 0 .83.087.518.685l-.863 1.595c-.145.242-.52.358-.954.358l-2.784-.006a.245.245 0 1 0 0 .49l2.771.005c.396 0 .408.258.178.625l-1.98 3.68c-.169.313-.49.355-1.118.355l-1.11-.006a.245.245 0 1 0 0 .49l1.095.002c.416 0 .526.233.34.631l-1.625 3.021c-.243.429-.587.6-1.668.6l-6.144-.006a.246.246 0 1 0 0 .492l6.127.001c.693.011.949.314.678.81l-3.174 5.96c-.188.265-.705.305-1.587.305l-6.145-.008a.246.246 0 0 0-.244.249c0 .134.108.241.244.241l6.13.002c.733 0 1.181.032.958.418l-1.825 3.438c-.337.524-1.279.524-1.646.524l-1.95-.005a.244.244 0 0 0-.243.246c0 .135.11.244.244.244l1.932.001c.684 0 1.044.119.865.485l-2.442 4.589c-.22.409-1.174.429-1.91.429l-9.499-.009a.25.25 0 0 0-.245.248c0 .132.113.244.245.244l9.486.002c.63 0 1.423.077 1.127.58l-1.554 2.93c-.147.242-.679.262-1.446.262l-1.947-.003a.244.244 0 1 0 0 .488h1.934c.47 0 1.046.053.844.412l-.974 1.87c-.314.466-.628.88-1.381.88h-4.767c-1.763 0-1.701 1.173-.171 1.173l27.992.017c.818 0 .844-.11 1.23-.714l4.152-7.238 21.217.002c1.532.004 1.138-1.151.24-1.18m-16.643-2.157c-.208 1.194-1.41 1.984-2.92 2.385l-1.558.387 1.28-2.305c.337-.628-.402-.997-1.207-.064-5.417 6.312-7.147 9.332-15.502 9.355l-2.246.004c-.68 0-1.425-.265-.964-.914l2.956-5.508 11.228.002c1.533 0 1.14-1.156.24-1.185-.595-.02-1.245-.36-1.704-1.087-.13-.2-.409-1 .028-1.617l4.3-5.715h7.149zm1.617-7.225h-6.972l8.82-11.635z" class="cls-54"/><path fill="#562385" d="M554.464 414.874c-.115-.575-.322-.225-.702.498-.115.22-.483.225-.85.225l-1.12.005a.247.247 0 0 0-.248.248c0 .132.11.24.248.24h1.104c.416 0 .426.28.228.702-.772 1.644-1.567 2.746-2.625 4.068-.165.207-.59.388-.925.388l-1.13.007a.244.244 0 0 0-.242.246c0 .134.108.244.243.244h1.104c.556 0-.008.34-.102.466-1.957 2.612-3.306 3.778-4.743 4.948-.169.135-.98.086-1.549.083l-1.112.003a.25.25 0 0 0-.243.25c0 .134.11.246.243.246h1.099c.837 0 .206.48.083.584-3.053 2.542-7.595 3.36-9.674 3.1-6.747-.846-8.14-5.968-8.639-8.015-.1-.428-.426-1.307-.533-1.848-.208-1.07 2.836-1.374 3.676-.811 1.273.852 4.248 1.728 6.588 1.735 2.164.008 6.593-1.564 7.874-5.28 1.312-3.803-1.98-8.024-3.442-9.479-1.856-1.86-3.614-4.817-2.871-6.988.557-1.639 1.489-2.38 3.487-2.38 2.582 0 4.457 1.66 4.457 4.014 0 .213-.126.46-.296.46l-.912.004a.246.246 0 1 0 0 .493l.855-.001c.243 0 .394.182.33.478-.165.787-.22 1.341-.392 2.131-.103.458.57.775.803.441l4.058-7.244c.294-.547-.36-.693-.84-.523-1.112.382-2.919.652-3.557.19-1.52-1.089-2.904-1.786-5.017-1.786-3.61 0-6.135.886-7.756 3.855-.125.233-.48.23-.782.23h-.694a.24.24 0 0 0-.243.243c0 .135.109.244.243.244l.59-.006c.252 0 .42.072.295.366q-.165.4-.306.838c-.409 1.286-.276 3.09.368 4.695.041.108-.097.158-.346.158h-1.102a.246.246 0 1 0 0 .491h1.102c.5.003.62.055.826.346.572.801 1.153 1.396 1.887 2.329.232.291-.754.373-1.278.37l-4.372-.002a.243.243 0 0 0-.243.246c0 .135.104.246.243.246l4.428-.006c.71 0 1.931-.01 2.068.146 1.068 1.237 2.364 3.14 2.586 4.742.062.463-.11.657-.68.657h-.594a.24.24 0 0 0-.244.244c0 .136.109.244.244.244h.524c.452 0 .697.075.591.413-.574 1.833-1.434 3.16-4.938 3.141-3.673-.02-4.42-3.622-3.345-7.379.21-.745-.01-1.07-.347-.479l-2.557 4.016c-.062.095-.308.325-.699.325l-.36-.003c-.139 0-.244.112-.244.247s.11.243.244.243c.323 0 .45.174.323.354l-.933 1.46c-1.55-3.534-4.138-7.886-5.518-9.47l.025-.076c3.409-.208 8.431-3.399 9.257-6.252 1.428-4.95-3.38-6.778-6.001-6.778l-11.516.002c-1.53 0-1.644 1.161-.175 1.161.795 0 1.487.694 1.138 1.397l-2.55 4.597c-.211.376-1.004.353-2.032.353h-1.118a.246.246 0 0 0 0 .493h1.1c.734 0 1.543.043 1.268.57l-3.015 5.443c-.144.254-.536.275-1.561.275l-1.112.002a.25.25 0 0 0-.248.25c0 .13.11.245.248.245h1.084c.811 0 1.113.106.88.525l-4.029 7.286c-.48.522-1.053.622-2.037.622-1.468 0-1.454 1.163.078 1.163h9.863c1.532 0 1.143-1.184.237-1.184-.529 0-1.092-.976-.736-1.56l5.034-9.538h.512c2.239 0 2.781 3.674 3.2 7.684.032.29-.515.301-1.632.301l-2.797.01a.244.244 0 0 0-.246.244c0 .133.11.245.246.245h2.766c.738 0 1.764.008 1.79.241.193 1.761.337 3.31.677 4.722.104.44-.68.371-1.52.371l-3.566.004a.245.245 0 1 0 0 .492l3.562.003c1.119 0 1.698 0 1.761.228 1.533 5.628 8.113 10.057 14.508 9.813 5.491-.208 10.13-3.196 12.5-5.098 3.162-2.535 7.798-7.842 9.689-11.7.341-.706.9-1.613.771-2.242m-36.9-7.49c-.77.63-1.982 1.359-2.217 1.127-.327-.324-1.347-1.028-1.894-1.28l4.572-8.355c.189-.294.405-.453.91-.453 1.777 0 2.36 1.928 1.524 4.332-.587 1.683-1.536 3.509-2.896 4.63" class="cls-55"/><path fill="#562385" d="M462.023 390.032c-.928 1.196-2.154 1.502-3.53 1.502h-.387l2.426-4.803a.77.77 0 0 1 .69-.395c.302 0 .264-.606-.132-.606h-3.826c-.325 0-.44.606-.136.606.326 0 .385.361.23.667l-2.173 4.282c-.148.23-.389.291-.653.363-.324.082-.545.66-.18.66h6.106c.472 0 .582-.174.707-.343l1.23-1.902c.175-.228-.195-.26-.372-.03" class="cls-56"/><path fill="#562385" d="M480.415 385.9c-.187.104-.624.156-.814-.004-.487-.404-1.444-.715-1.946-.715-1.438 0-2.48.284-3.107 1.642-.533 1.16.013 2.13 1.282 2.715.55.255 1.279.589 1 1.247-.204.487-.767.536-1.275.534-.682-.009-1.708-.52-1.865-1.483-.054-.314-.42-.24-.525-.073l-.87 1.732c-.135.23.225.484.366.334.292-.313.93-.391 1.244-.18.435.289 1.55.795 2.21.788 1.46-.011 2.423-.384 3.223-1.638.729-1.141.28-2.272-1.052-2.902-.703-.328-1.305-.915-.992-1.561.208-.42.831-.33 1.142-.277.596.102 1.358.662 1.445 1.154.039.209.304.251.424.064l.457-1.07c.105-.206-.232-.368-.347-.307" class="cls-57"/><path fill="#562385" d="m522.78 387.621.533-.978c.233-.431-.146-.921-.756-.921h-7.129c-.513 0-.366.534-.156.534.459 0 .594.56.315 1.033l-2.142 3.941c-.32.38-.523.542-.983.542-.367 0-.498.536.016.536h7.225c.293 0 .425-.104.528-.252l.983-1.304c.238-.313-.278-.313-.436-.157-1.245 1.246-2.58 1.214-3.55 1.214h-.84l.986-2.211h.214c.632 0 1.364-.008 1.56.476.051.115.361.208.489 0l.843-1.689c.136-.25-.242-.293-.348-.113-.33.594-1.797.435-2.178.435h-.214l1.234-2.43h1.372c.853 0 1.586.602 1.83 1.26.058.157.514.284.604.084" class="cls-50"/><path fill="#562385" d="M504.54 385.722h-2.536c-.514 0-.362.534-.154.534.544 0 1.036.637.74 1.226l-1.053 1.923-2.316-3.393c-.155-.207-.518-.31-.833-.31h-2.496c-.513 0-.394.534-.186.534.53 0 .394.397.262.68l-1.99 3.828c-.127.307-.666.35-.837-.04l-1.536-5.016c-.064-.198-.966-.187-1.195 0l-3.857 3.182h-2.002c-.394 0-.552.166-.552.376s.15.403.567.403l1.045-.003-1.045.863c-.578.429-1.171 1.027-1.571 1.027h-.239c-.38 0-.594.061-.594.365s.162.408.519.408h3.11c.59 0 .473-.765.18-.765-.324 0-.857-.41-.36-.986l.95-.908h1.871c1.11 0 1.888 1.286 1.225 1.687l-.511.282c-.242.126-.347.69 0 .69h6.079c.454 0 .36-.594.15-.594-.62 0-.327-.897-.206-1.136l1.596-3.027 2.245 4.35c.145.273.28.408.541.408h.86c.271 0 .366-.158.488-.367l2.554-4.617c.414-.826.729-1.062 1.248-1.062.21-.002.356-.542-.16-.542m-17.007 3.147 2.377-1.94.012 1.94z" class="cls-48"/><path fill="#562385" d="M468.522 385.434c-2.14 0-4.34 1.053-4.783 3.297-.382 1.953.97 3.978 3.36 3.978 2.271 0 4.37-1.488 4.792-3.642.422-2.165-1.19-3.633-3.37-3.633m.608 4.114c-.68 1.35-1.814 2.158-2.54 1.794-.72-.364-.755-1.754-.076-3.107.675-1.352 1.81-2.157 2.535-1.794.722.364.756 1.754.081 3.107" class="cls-51"/><path fill="#562385" d="M511.77 388.707h-2.745c-.513 0-.363.537-.156.537.218 0 .42.115.42.462 0 1.11-.469 1.536-1.427 1.536-1.044 0-1.423-1.269-.717-2.825.45-.995 1.64-1.925 3.049-1.925.868 0 1.596.187 1.703.998.027.2.33.2.429.011l.655-1.169c.074-.124-.041-.273-.24-.286-.167-.01-.544.206-.789.024-.552-.409-1.747-.807-2.65-.807-1.478 0-3.539.334-4.929 2.75-1.256 2.185.576 4.494 2.276 4.496.943.003 2.04-.696 2.666-.962l.703.479c.101.123.323.28.531.28h.261c.244 0 .339-.328.433-.537l1.076-2.611c.139-.261.06-.45-.549-.45" class="cls-49"/><path fill="#562385" d="M549.41 385.9c-.183.104-.622.156-.81-.004-.487-.404-1.445-.715-1.946-.715-1.438 0-2.483.284-3.107 1.642-.537 1.16.012 2.13 1.282 2.715.553.255 1.282.589 1.002 1.247-.206.487-.773.536-1.28.534-.678-.009-1.705-.52-1.865-1.483-.05-.314-.416-.24-.52-.073l-.871 1.732c-.137.23.222.484.365.334.295-.313.932-.391 1.248-.18.432.289 1.541.795 2.21.788 1.454-.011 2.42-.384 3.215-1.638.733-1.141.283-2.272-1.047-2.902-.706-.328-1.307-.915-.992-1.561.202-.42.834-.33 1.145-.277.59.102 1.356.662 1.442 1.154.037.209.303.251.42.064l.46-1.07c.1-.206-.234-.368-.35-.307" class="cls-47"/><path fill="#562385" d="M530.306 390.032c-.922 1.196-2.152 1.502-3.532 1.502h-.386l2.43-4.803a.77.77 0 0 1 .687-.395c.303 0 .266-.606-.133-.606h-3.825c-.325 0-.44.606-.136.606.328 0 .387.361.229.667l-2.172 4.282c-.149.23-.385.291-.654.363-.322.082-.543.66-.176.66h6.105c.471 0 .585-.174.709-.343l1.225-1.902c.18-.228-.193-.26-.371-.03" class="cls-45"/><path fill="#562385" d="M539.515 386.276c.85 0 1.589.602 1.829 1.26.054.158.51.285.607.085l.531-.978c.229-.431-.15-.921-.76-.921h-7.127c-.515 0-.365.534-.155.534.46 0 .598.56.318 1.033l-2.142 3.941c-.32.38-.528.542-.984.542-.367 0-.499.536.018.536h7.222c.293 0 .425-.104.528-.252l.982-1.304c.24-.313-.279-.313-.436-.157-1.246 1.246-2.583 1.214-3.55 1.214h-.842l.99-2.211h.21c.634 0 1.367-.008 1.559.476.052.115.364.208.492 0l.842-1.689c.138-.25-.243-.293-.345-.113-.336.594-1.797.435-2.184.435h-.208l1.234-2.43z" class="cls-46"/><path d="M511.438 380.507c-.549-.632-1.305-1.975-6.74-6.713-7.999-6.969-18.592-10.148-28.543-10.148-7.333 0-13.756 1.647-20.867 5.56-9.059 4.988-12.811 10.72-13.738 11.887-.687.857-.785 1.358-.34 1.616.316.18.926-.486 1.497-1.238 2.694-3.56 6.238-7.09 9.968-9.167 1.16.17 2.783 1.786 3.413 2.642-2.383 1.3-6.34 4.315-7.838 5.476-1.293 1-1.74 1.564-1.391 1.972.292.337 1.281-.327 2.11-1.006 1.431-1.177 5.69-4.194 7.796-5.329 1.435 1.68.972 4.78.465 5.454-.272.36-.313.745 0 .922.293.167.616-.259 1.034-.862.974-1.411.584-4.827-.254-6.059 2.569-1.596 6.258-2.663 8.495-3.167.188.358 2.898 8.271 3.414 9.71.28.785.561 1.727 1.136 1.551.385-.115.13-.98-.189-1.844-.396-1.073-2.446-7.721-3.076-9.69.739-.4 5.188-1.303 6.301-1.257-.546 2.894 1.504 4.078 3.815 5.6 1.232.807 9.05 5.301 10.687 6.31.932.578 1.656.945 1.853.673.232-.312-.401-.965-1.264-1.47-.686-.402-7.961-4.621-11.001-6.543-2.177-1.374-3.349-2.848-2.827-4.782.717-.208 2.91-.225 5.188-.208 15.51.126 27.948 9.016 29.338 10.441.706.723 1.686 1.344 2.065 1.052.24-.185-.175-1.003-.507-1.383m-54.082-6.126c-.417-.699-2.39-2.498-3.456-2.853 2.489-1.845 8.263-4.482 10.455-4.948.376.629 1.39 3.315 1.726 4.447-1.938.419-7.081 2.262-8.725 3.354m16.943-4.992c-2.02.128-5.69.922-6.995 1.302-.338-.88-1.263-3.61-1.558-4.488 3.72-1.056 8.047-1.423 11.38-1.133-.928.711-2.486 3.522-2.827 4.319m10.076-.125c-3.365-.236-6.112-.332-8.516-.082.698-1.754 2.086-3.395 3.165-4.112 2.29.093 4.656.427 6.532.798 6 1.183 15.328 4.842 19.351 10.234-5.36-3.575-14.26-6.39-20.532-6.838m30.421 64.351c.574-1.056 1.042-1.658.548-1.932-.451-.247-.887.73-1.434 1.678-1.812 3.15-3.79 5.744-8.262 9.816-4.952 4.512-10.643 7.13-12.626 7.8-1.684-4.738-8.112-24.924-8.283-25.501-.251-.862-.468-1.108-.758-1.009-.327.119-.126.593.043 1.345.169.753 7.82 24.646 8.072 25.484-1.52.753-7.683 2.478-11.993 2.617-3.838.128-8.347 0-10.624-.523-2.67-2.154-8.737-10.724-11.042-15.29-2.714-5.374-4.512-10.318-4.974-12.419-.224-1.004-.509-1.728-1.014-1.63-.543.103-.231.897.086 1.974.815 2.764 2.148 6.681 4.974 12.266 2.997 5.915 8.345 12.854 9.905 14.744-4.888-1.029-10.827-3.312-16.471-7.526-4.862-3.62-9.038-8.238-11.14-11.6-.358-.578-.784-1.394-1.305-1.049-.235.155.054.811.42 1.467 3.05 5.481 10.49 13.237 20.024 17.492 11.11 4.96 23.225 4.696 34.06.502 9.477-3.67 17.72-11.218 21.794-18.706"/></svg>